# xmcd
#
# Track frame offsets: 
#        150
#        13643
#        26273
#        37863
#        50793
#        63355
#        74875
#        86600
#        98598
#        111790
#        124295
#        135073
#        146833
#        157383
#        170763
#        184205
#        196570
#        209658
#        223375
#        238548
#        251658
#        264528
#        276075
#        288440
#        300723
#        313515
#
# Disc length: 4332 seconds
#
# Revision: 0
# Processed by: cddbd v1.5.2PL0 Copyright (c) Steve Scherf et al.
# Submitted via: ExactAudioCopy v0.99pb1
#
DISCID=8d10ea1a
DTITLE=Smokey Robinson &The Miracles - The 35th Anniversary Collection
DTITLE=[Disc 2]
DYEAR=1994
DGENRE=R&B
TTITLE0=You've Really Got a Hold On Me
TTITLE1=Happy Landing
TTITLE2=Father Dear
TTITLE3=A Love She Can Count On
TTITLE4=Mickey's Monkey
TTITLE5=Whatever Makes You Happy
TTITLE6=The Day You Take One (You Have To Take The Other)
TTITLE7=I Gotta Dance To Keep From Crying
TTITLE8=(You Can't Let The Boy Overpower) The Man In You
TTITLE9=Heartbreak Road
TTITLE10=Show Me You Can Dance
TTITLE11=I Like It Like That
TTITLE12=You're So Fine And Sweet
TTITLE13=That's What Love Is Made Of
TTITLE14=Baby Don't You Go
TTITLE15=Ooo Baby Baby
TTITLE16=All That's Good
TTITLE17=The Tracks Of My Tears
TTITLE18=A Fork In The Road
TTITLE19=My Girl Has Gone
TTITLE20=Going To a Go Go
TTITLE21=Choosey Beggar
TTITLE22=I'm Stuck On You
TTITLE23=Whole Lot Of Shakin' In My Heart (Since I Met You)
TTITLE24=Oh Be My Love
TTITLE25=(Come Round Here) I'm The One You Need
EXTD=
EXTT0=
EXTT1=
EXTT2=
EXTT3=
EXTT4=
EXTT5=
EXTT6=
EXTT7=
EXTT8=
EXTT9=
EXTT10=
EXTT11=
EXTT12=
EXTT13=
EXTT14=
EXTT15=
EXTT16=
EXTT17=
EXTT18=
EXTT19=
EXTT20=
EXTT21=
EXTT22=
EXTT23=
EXTT24=
EXTT25=
PLAYORDER=
